<svg xmlns="http://www.w3.org/2000/svg" viewBox="0 0 1000 1000">
  <g id="ears" opacity="0.95">
    <path fill="#e01f26" d="M335 346c-19-63-24-132-12-198 33 43 71 83 114 117"/>
    <path fill="#b22024" d="M340 287c-5-16-8-33-7-50l4 8v-39c12 16 28 31 46 41"/>
    <path fill="#e01f26" d="M665 342c19-63 24-132 12-198-33 43-71 83-114 117"/>
    <path fill="#b22024" d="M660 283c5-16 8-33 7-50l-4 8v-39c-12 16-28 31-46 41"/>
    <animateTransform attributeName="transform" type="rotate" values="0 500 300; 6 500 300; 0 500 300; -4 500 300; 0 500 300" dur="2.5s" repeatCount="indefinite"/>
  </g>
</svg>
